<mxfile host="app.diagrams.net" modified="2021-03-05T08:28:12.347Z" agent="5.0 (Macintosh; Intel Mac OS X 10_15_7) AppleWebKit/537.36 (KHTML, like Gecko) Chrome/89.0.4389.72 Safari/537.36" etag="f_85jYfbQjhMDe174hzD" version="14.4.4" type="github">
  <diagram id="ZMwauwiRDiGvQJOp3vVE" name="Page-1">
    <mxGraphModel dx="1035" dy="575" grid="1" gridSize="10" guides="1" tooltips="1" connect="1" arrows="1" fold="1" page="1" pageScale="1" pageWidth="827" pageHeight="1169" math="0" shadow="0">
      <root>
        <mxCell id="0" />
        <mxCell id="1" parent="0" />
        <mxCell id="CyMkmmz0OC61lMzwthkQ-23" value="" style="verticalLabelPosition=bottom;verticalAlign=top;html=1;shape=mxgraph.basic.rect;fillColor2=none;strokeWidth=1;size=20;indent=5;shadow=1;fillColor=none;dashed=1;strokeColor=#3333FF;" vertex="1" parent="1">
          <mxGeometry x="480" y="230" width="240" height="480" as="geometry" />
        </mxCell>
        <mxCell id="CyMkmmz0OC61lMzwthkQ-1" value="VPC" style="points=[[0,0],[0.25,0],[0.5,0],[0.75,0],[1,0],[1,0.25],[1,0.5],[1,0.75],[1,1],[0.75,1],[0.5,1],[0.25,1],[0,1],[0,0.75],[0,0.5],[0,0.25]];outlineConnect=0;gradientColor=none;html=1;whiteSpace=wrap;fontSize=12;fontStyle=0;shape=mxgraph.aws4.group;grIcon=mxgraph.aws4.group_vpc;strokeColor=#248814;fillColor=none;verticalAlign=top;align=left;spacingLeft=30;fontColor=#AAB7B8;dashed=0;" vertex="1" parent="1">
          <mxGeometry x="80" y="170" width="680" height="590" as="geometry" />
        </mxCell>
        <mxCell id="CyMkmmz0OC61lMzwthkQ-2" value="Public Subnet" style="shape=mxgraph.ibm.box;prType=public;fontStyle=0;verticalAlign=top;align=left;spacingLeft=32;spacingTop=4;fillColor=#d5e8d4;rounded=0;whiteSpace=wrap;html=1;strokeWidth=3;dashed=0;container=1;spacing=-4;collapsible=0;expand=0;recursiveResize=0;strokeColor=#82b366;" vertex="1" parent="1">
          <mxGeometry x="120" y="270" width="200" height="200" as="geometry" />
        </mxCell>
        <mxCell id="CyMkmmz0OC61lMzwthkQ-7" value="Amazon EC2" style="outlineConnect=0;fontColor=#232F3E;gradientColor=none;strokeColor=#ffffff;fillColor=#232F3E;dashed=0;verticalLabelPosition=middle;verticalAlign=bottom;align=center;html=1;whiteSpace=wrap;fontSize=10;fontStyle=1;spacing=3;shape=mxgraph.aws4.productIcon;prIcon=mxgraph.aws4.ec2;" vertex="1" parent="CyMkmmz0OC61lMzwthkQ-2">
          <mxGeometry x="60" y="60" width="80" height="100" as="geometry" />
        </mxCell>
        <mxCell id="CyMkmmz0OC61lMzwthkQ-4" value="Private Subnet" style="shape=mxgraph.ibm.box;prType=public;fontStyle=0;verticalAlign=top;align=left;spacingLeft=32;spacingTop=4;fillColor=#dae8fc;rounded=0;whiteSpace=wrap;html=1;strokeColor=#6c8ebf;strokeWidth=3;dashed=0;container=1;spacing=-4;collapsible=0;expand=0;recursiveResize=0;shadow=1;" vertex="1" parent="1">
          <mxGeometry x="120" y="490" width="200" height="200" as="geometry" />
        </mxCell>
        <mxCell id="CyMkmmz0OC61lMzwthkQ-21" value="" style="verticalLabelPosition=bottom;verticalAlign=top;html=1;shape=mxgraph.basic.rect;fillColor2=none;strokeWidth=1;size=20;indent=5;shadow=1;fillColor=none;dashed=1;strokeColor=#3333FF;" vertex="1" parent="CyMkmmz0OC61lMzwthkQ-4">
          <mxGeometry x="-20" y="-260" width="240" height="480" as="geometry" />
        </mxCell>
        <mxCell id="CyMkmmz0OC61lMzwthkQ-8" value="Master RDS" style="outlineConnect=0;fontColor=#232F3E;gradientColor=none;strokeColor=#ffffff;fillColor=#232F3E;dashed=0;verticalLabelPosition=middle;verticalAlign=bottom;align=center;html=1;whiteSpace=wrap;fontSize=10;fontStyle=1;spacing=3;shape=mxgraph.aws4.productIcon;prIcon=mxgraph.aws4.rds;" vertex="1" parent="CyMkmmz0OC61lMzwthkQ-4">
          <mxGeometry x="60" y="80" width="80" height="100" as="geometry" />
        </mxCell>
        <mxCell id="CyMkmmz0OC61lMzwthkQ-10" value="Private Subnet" style="shape=mxgraph.ibm.box;prType=public;fontStyle=0;verticalAlign=top;align=left;spacingLeft=32;spacingTop=4;fillColor=#dae8fc;rounded=0;whiteSpace=wrap;html=1;strokeColor=#6c8ebf;strokeWidth=3;dashed=0;container=1;spacing=-4;collapsible=0;expand=0;recursiveResize=0;" vertex="1" parent="1">
          <mxGeometry x="500" y="490" width="200" height="200" as="geometry" />
        </mxCell>
        <mxCell id="CyMkmmz0OC61lMzwthkQ-9" value="" style="points=[[0,0,0],[0.25,0,0],[0.5,0,0],[0.75,0,0],[1,0,0],[0,1,0],[0.25,1,0],[0.5,1,0],[0.75,1,0],[1,1,0],[0,0.25,0],[0,0.5,0],[0,0.75,0],[1,0.25,0],[1,0.5,0],[1,0.75,0]];outlineConnect=0;fontColor=#232F3E;gradientColor=#4D72F3;gradientDirection=north;fillColor=#3334B9;strokeColor=#ffffff;dashed=0;verticalLabelPosition=bottom;verticalAlign=top;align=center;html=1;fontSize=12;fontStyle=0;aspect=fixed;shape=mxgraph.aws4.resourceIcon;resIcon=mxgraph.aws4.rds;" vertex="1" parent="CyMkmmz0OC61lMzwthkQ-10">
          <mxGeometry x="61" y="88" width="78" height="78" as="geometry" />
        </mxCell>
        <mxCell id="CyMkmmz0OC61lMzwthkQ-17" value="Slave RDS" style="text;html=1;strokeColor=none;fillColor=none;align=center;verticalAlign=middle;whiteSpace=wrap;rounded=0;shadow=1;" vertex="1" parent="CyMkmmz0OC61lMzwthkQ-10">
          <mxGeometry x="60" y="166" width="80" height="20" as="geometry" />
        </mxCell>
        <mxCell id="CyMkmmz0OC61lMzwthkQ-12" value="Public Subnet" style="shape=mxgraph.ibm.box;prType=public;fontStyle=0;verticalAlign=top;align=left;spacingLeft=32;spacingTop=4;fillColor=#d5e8d4;rounded=0;whiteSpace=wrap;html=1;strokeWidth=3;dashed=0;container=1;spacing=-4;collapsible=0;expand=0;recursiveResize=0;strokeColor=#82b366;" vertex="1" parent="1">
          <mxGeometry x="500" y="260" width="200" height="200" as="geometry" />
        </mxCell>
        <mxCell id="CyMkmmz0OC61lMzwthkQ-14" value="" style="points=[[0,0,0],[0.25,0,0],[0.5,0,0],[0.75,0,0],[1,0,0],[0,1,0],[0.25,1,0],[0.5,1,0],[0.75,1,0],[1,1,0],[0,0.25,0],[0,0.5,0],[0,0.75,0],[1,0.25,0],[1,0.5,0],[1,0.75,0]];outlineConnect=0;fontColor=#232F3E;gradientColor=#945DF2;gradientDirection=north;fillColor=#5A30B5;strokeColor=#ffffff;dashed=0;verticalLabelPosition=bottom;verticalAlign=top;align=center;html=1;fontSize=12;fontStyle=0;aspect=fixed;shape=mxgraph.aws4.resourceIcon;resIcon=mxgraph.aws4.elastic_load_balancing;" vertex="1" parent="1">
          <mxGeometry x="384" y="190" width="60" height="60" as="geometry" />
        </mxCell>
        <mxCell id="CyMkmmz0OC61lMzwthkQ-18" value="LB" style="text;html=1;strokeColor=none;fillColor=none;align=center;verticalAlign=middle;whiteSpace=wrap;rounded=0;shadow=1;" vertex="1" parent="1">
          <mxGeometry x="394.5" y="250" width="40" height="20" as="geometry" />
        </mxCell>
        <mxCell id="CyMkmmz0OC61lMzwthkQ-22" value="Availabillity Zone" style="text;html=1;strokeColor=none;fillColor=none;align=center;verticalAlign=middle;whiteSpace=wrap;rounded=0;shadow=1;" vertex="1" parent="1">
          <mxGeometry x="150" y="230" width="140" height="20" as="geometry" />
        </mxCell>
        <mxCell id="CyMkmmz0OC61lMzwthkQ-24" value="Availabillity Zone" style="text;html=1;strokeColor=none;fillColor=none;align=center;verticalAlign=middle;whiteSpace=wrap;rounded=0;shadow=1;" vertex="1" parent="1">
          <mxGeometry x="530" y="230" width="140" height="20" as="geometry" />
        </mxCell>
        <mxCell id="CyMkmmz0OC61lMzwthkQ-28" value="wordpress" style="text;html=1;strokeColor=none;fillColor=none;align=center;verticalAlign=middle;whiteSpace=wrap;rounded=0;shadow=1;dashed=1;" vertex="1" parent="1">
          <mxGeometry x="200" y="310" width="40" height="20" as="geometry" />
        </mxCell>
        <mxCell id="CyMkmmz0OC61lMzwthkQ-36" style="edgeStyle=orthogonalEdgeStyle;rounded=0;orthogonalLoop=1;jettySize=auto;html=1;exitX=0.5;exitY=1;exitDx=0;exitDy=0;entryX=0.5;entryY=0;entryDx=0;entryDy=0;" edge="1" parent="1" source="CyMkmmz0OC61lMzwthkQ-18" target="CyMkmmz0OC61lMzwthkQ-28">
          <mxGeometry relative="1" as="geometry">
            <mxPoint x="408.9999999999998" y="310" as="sourcePoint" />
          </mxGeometry>
        </mxCell>
        <mxCell id="CyMkmmz0OC61lMzwthkQ-40" value="" style="endArrow=classic;html=1;" edge="1" parent="1" target="CyMkmmz0OC61lMzwthkQ-8">
          <mxGeometry width="50" height="50" relative="1" as="geometry">
            <mxPoint x="220" y="430" as="sourcePoint" />
            <mxPoint x="430" y="440" as="targetPoint" />
          </mxGeometry>
        </mxCell>
        <mxCell id="CyMkmmz0OC61lMzwthkQ-41" value="" style="shape=flexArrow;endArrow=classic;startArrow=classic;html=1;" edge="1" parent="1" source="CyMkmmz0OC61lMzwthkQ-8" target="CyMkmmz0OC61lMzwthkQ-9">
          <mxGeometry width="50" height="50" relative="1" as="geometry">
            <mxPoint x="380" y="620" as="sourcePoint" />
            <mxPoint x="430" y="570" as="targetPoint" />
            <Array as="points" />
          </mxGeometry>
        </mxCell>
        <mxCell id="CyMkmmz0OC61lMzwthkQ-42" value="HA" style="text;html=1;strokeColor=none;fillColor=none;align=center;verticalAlign=middle;whiteSpace=wrap;rounded=0;shadow=1;strokeWidth=2;fontSize=23;" vertex="1" parent="1">
          <mxGeometry x="370" y="570" width="74" height="40" as="geometry" />
        </mxCell>
      </root>
    </mxGraphModel>
  </diagram>
</mxfile>
